# xmcd
#
# Track frame offsets: 
#        150
#        26725
#        48748
#        69353
#        91905
#        114315
#        134733
#        157330
#        180390
#
# Disc length: 2707 seconds
#
# Revision: 1
# Processed by: cddbd v1.5.2PL0 Copyright (c) Steve Scherf et al.
# Submitted via: ExactAudioCopy v0.99pb5
#
DISCID=7c0a9109
DTITLE=Guayacan Orquesta - A Puro Golpe
DYEAR=1994
DGENRE=Salsa
TTITLE0=Siete anos
TTITLE1=Arriba mi folclor
TTITLE2=Deseas terminar
TTITLE3=Y me dejastes
TTITLE4=A Cuba volver
TTITLE5=Llego el amor
TTITLE6=Nostalgia
TTITLE7=Penas, penas
TTITLE8=Kaquiry Kaquiry
EXTD=YEAR: 1994
EXTT0=
EXTT1=
EXTT2=
EXTT3=
EXTT4=
EXTT5=
EXTT6=
EXTT7=
EXTT8=
PLAYORDER=
